<svg width="15" height="16" viewBox="0 0 15 16" fill="none" xmlns="http://www.w3.org/2000/svg">
<path d="M15 1.33333V14.6667C15 15.0203 14.8563 15.3594 14.6006 15.6095C14.3449 15.8595 13.998 16 13.6364 16H10.2273C9.86561 16 9.51877 15.8595 9.26304 15.6095C9.00731 15.3594 8.86364 15.0203 8.86364 14.6667V1.33333C8.86364 0.979711 9.00731 0.640573 9.26304 0.390524C9.51877 0.140476 9.86561 0 10.2273 0H13.6364C13.998 0 14.3449 0.140476 14.6006 0.390524C14.8563 0.640573 15 0.979711 15 1.33333ZM4.77273 0H1.36364C1.00198 0 0.655131 0.140476 0.3994 0.390524C0.143668 0.640573 0 0.979711 0 1.33333V14.6667C0 15.0203 0.143668 15.3594 0.3994 15.6095C0.655131 15.8595 1.00198 16 1.36364 16H4.77273C5.13439 16 5.48123 15.8595 5.73696 15.6095C5.9927 15.3594 6.13636 15.0203 6.13636 14.6667V1.33333C6.13636 0.979711 5.9927 0.640573 5.73696 0.390524C5.48123 0.140476 5.13439 0 4.77273 0Z" fill="white"/>
</svg>
